<svg xmlns="http://www.w3.org/2000/svg" viewBox="0 0 1149.13 149.69"><defs><style>.cls-1{fill:#221d2b;}.cls-2{fill:#2a9d8f;}.cls-3{fill:#21a393;}.cls-4{fill:#ccc;}.cls-5{fill:none;}</style></defs><g id="Layer_2" data-name="Layer 2"><g id="Logo"><path class="cls-1" d="M198.44,14.7H154.2V53.85h39.74v8.7H154.2V102.3h44.24V111H143.7V6h54.74Z"/><path class="cls-1" d="M338.84,64.2c0-18.15-9.45-27.45-24-27.45-14.85,0-25.35,9.9-25.35,29.85V111H279.14V64.2c0-18.15-9.6-27.45-24.15-27.45-15,0-25.35,9.9-25.35,29.85V111H219.15V29.1h10.49V43.2c5.25-10.35,15.6-15.6,27.15-15.6,13.65,0,25.35,6.45,30.3,20.1,4.5-13.35,16.5-20.1,29.55-20.1,18.15,0,32.55,11.4,32.55,35.4v48H338.84Z"/><path class="cls-1" d="M415.34,27.9c22.35,0,39,16.35,39,42s-16.65,42.3-39,42.3c-16.35,0-27.75-9-32.55-19.2v56.69H372.44V29.1h10.35v18C387.59,36.75,399,27.9,415.34,27.9Zm-2.1,9.15c-16.65,0-30.45,12.6-30.45,33s13.8,33,30.45,33c17.25,0,30.45-12.45,30.45-33.15C443.69,49.05,430.49,37.05,413.24,37.05Z"/><path class="cls-1" d="M473.69,0h10.5V111h-10.5Z"/><path class="cls-1" d="M543.89,112.2c-23.1,0-40.65-16.2-40.65-42.15s18-42.15,41-42.15S585.14,44,585.14,70.05,567,112.2,543.89,112.2Zm0-9.15c15.45,0,30.45-10.5,30.45-33s-14.7-33-30.3-33-30.15,10.5-30.15,33S528.29,103.05,543.89,103.05Z"/><path class="cls-1" d="M661,29.1h10.8l-48.6,120.44h-11l15.9-39L594.59,29.1h11.55L634,99Z"/><path class="cls-1" d="M721.49,112.2c-23.25,0-40.2-16.2-40.2-42.15s16.65-42.15,40.2-42.15c24,0,38.7,17.1,38.7,37.95a71.8,71.8,0,0,1-.3,8.25H691.94c.9,19.2,14.25,29.25,29.55,29.25,14,0,23.4-7.35,26.4-18.3H759C755.24,100.5,742,112.2,721.49,112.2ZM691.94,65.55h57.6C750,46.5,736.19,36.9,721,36.9,706.19,36.9,693.14,46.5,691.94,65.55Z"/><path class="cls-1" d="M814.79,112.2c-23.25,0-40.2-16.2-40.2-42.15s16.65-42.15,40.2-42.15c24,0,38.69,17.1,38.69,37.95a74.26,74.26,0,0,1-.29,8.25h-68c.9,19.2,14.25,29.25,29.55,29.25,14,0,23.4-7.35,26.4-18.3h11.09C848.53,100.5,835.34,112.2,814.79,112.2ZM785.24,65.55h57.6c.44-19-13.35-28.65-28.5-28.65C799.49,36.9,786.44,46.5,785.24,65.55Z"/><path class="cls-2" d="M962.83,58.8c0,31.65-21.75,52.2-55.19,52.2H871V6.3h36.6C941.08,6.3,962.83,27,962.83,58.8ZM906.89,93.15c22.05,0,34.49-12.6,34.49-34.35S928.94,24,906.89,24H892V93.15Z"/><path class="cls-2" d="M1014.89,112.35c-24.15,0-41.7-16.8-41.7-42.9,0-26.25,17.1-42.9,41.7-42.9,24,0,40.94,16.35,40.94,41.1a49.08,49.08,0,0,1-.6,8.1H994.49c1,12.3,9.45,19.2,20,19.2,9,0,13.94-4.5,16.64-10h22.65C1049.23,100.2,1035.43,112.35,1014.89,112.35Zm-20.25-50.7h39.44c-.3-10.95-9-17.85-19.8-17.85C1004.24,43.8,996.29,50.25,994.64,61.65Z"/><path class="cls-2" d="M1084.78,27.9l21,63.75,21-63.75h22.35L1118.38,111h-25.5l-30.59-83.1Z"/><path class="cls-3" d="M30.65,26,9.51,47.1A4.62,4.62,0,0,1,3,47.1L1.35,45.47a4.62,4.62,0,0,1,0-6.53L21.53,18.76Z"/><path class="cls-2" d="M40.52,6.3l1.63,1.63a4.61,4.61,0,0,1,0,6.53L30.65,26l-9.12-7.2L34,6.3A4.61,4.61,0,0,1,40.52,6.3Z"/><path class="cls-2" d="M103,55.67l1.63,1.63a4.61,4.61,0,0,1,0,6.53L93.26,75.15,84.14,68,96.42,55.67A4.61,4.61,0,0,1,103,55.67Z"/><path class="cls-3" d="M93.26,75.15,58.88,109.53a4.61,4.61,0,0,1-6.52,0l-1.64-1.63a4.62,4.62,0,0,1,0-6.53L84.14,68Z"/><path class="cls-3" d="M84.46,68.28,54.23,98.52a2.31,2.31,0,0,1-3.47-.23l-39-51.14a2.3,2.3,0,0,1,.2-3L30.42,25.7Z"/><path class="cls-2" d="M93.58,59.17l-9.12,9.11-54-42.58,8.76-8.76a2.31,2.31,0,0,1,3-.2l51.13,39A2.31,2.31,0,0,1,93.58,59.17Z"/><path class="cls-4" d="M139.87,144,85.39,83.35,78.6,90.14l60.62,54.48A.46.46,0,0,0,139.87,144Z"/><line class="cls-5" x1="30.42" y1="25.7" x2="30.33" y2="25.63"/></g></g></svg>